<svg width="214" height="56" viewBox="0 0 214 56" fill="none" xmlns="http://www.w3.org/2000/svg">
<path d="M27.15 38.425C27.15 40.2917 26.7917 42.05 26.075 43.7C25.3583 45.35 24.3833 46.7833 23.15 48C21.9333 49.2333 20.5 50.2083 18.85 50.925C17.2 51.6417 15.4417 52 13.575 52C11.7083 52 9.95 51.6417 8.3 50.925C6.65 50.2083 5.20833 49.2333 3.975 48C2.74167 46.7833 1.76667 45.35 1.05 43.7C0.35 42.05 0 40.2917 0 38.425C0 36.5417 0.35 34.775 1.05 33.125C1.76667 31.475 2.74167 30.0417 3.975 28.825C5.20833 27.5917 6.65 26.6167 8.3 25.9C9.95 25.1833 11.7083 24.825 13.575 24.825V27.975C12.1417 27.975 10.7917 28.25 9.525 28.8C8.25833 29.35 7.15 30.1 6.2 31.05C5.26667 32 4.525 33.1083 3.975 34.375C3.425 35.6417 3.15 36.9917 3.15 38.425C3.15 39.8583 3.425 41.2083 3.975 42.475C4.525 43.7417 5.26667 44.8417 6.2 45.775C7.15 46.725 8.25833 47.475 9.525 48.025C10.7917 48.575 12.1417 48.85 13.575 48.85C15.0083 48.85 16.3583 48.575 17.625 48.025C18.8917 47.475 19.9917 46.725 20.925 45.775C21.875 44.8417 22.625 43.7417 23.175 42.475C23.725 41.2083 24 39.8583 24 38.425V5.125H27.25L39.2 33.55L51.1 5.125H54.4V38.425H51.25V12.975L40.65 38.225H37.75L27.15 12.975V38.425ZM66.5777 23.4L79.2527 38.5H75.5027L64.8277 25.8L62.8277 28.55V38.5H59.9527V8.9H62.8277V23.675L73.5027 8.9H77.0527L66.5777 23.4Z" fill="#0D0D0D"/>
<path d="M33.8096 52H32.6055V40.4072H28.4219V39.3174H38.002V40.4072H33.8096V52ZM41.8779 43.8174H39.4785V46.7969H41.7109C42.959 46.7969 43.6445 46.252 43.6445 45.2588C43.6445 44.3447 43.0117 43.8174 41.8779 43.8174ZM41.7988 47.7461H39.4785V51.042H42.0098C43.3545 51.042 44.0752 50.4707 44.0752 49.3809C44.0752 48.291 43.2666 47.7461 41.7988 47.7461ZM38.3271 52V42.8594H42.0186C43.7324 42.8594 44.7783 43.7295 44.7783 45.1533C44.7783 46.1553 44.1104 47.0078 43.1787 47.1836V47.2451C44.3564 47.377 45.2178 48.1855 45.2178 49.4072C45.2178 51.042 44.0312 52 42.0625 52H38.3271ZM50.6758 52.1494C48.1885 52.1494 46.5098 50.3301 46.5098 47.4297C46.5098 44.5205 48.1973 42.71 50.6758 42.71C53.1631 42.71 54.8418 44.5205 54.8418 47.4297C54.8418 50.3301 53.1631 52.1494 50.6758 52.1494ZM50.6758 51.1211C52.4688 51.1211 53.6641 49.75 53.6641 47.4297C53.6641 45.1094 52.4688 43.7383 50.6758 43.7383C48.8828 43.7383 47.6963 45.1094 47.6963 47.4297C47.6963 49.75 48.8828 51.1211 50.6758 51.1211ZM60.8447 42.71C63.1562 42.71 64.7383 44.5908 64.7383 47.4297C64.7383 50.2773 63.165 52.1494 60.8711 52.1494C59.3945 52.1494 58.2432 51.3057 57.7598 50.1191H57.7246V55.0234H56.5645V42.8594H57.6631V44.793H57.6982C58.1992 43.5801 59.3594 42.71 60.8447 42.71ZM60.6426 51.1211C62.4092 51.1211 63.5518 49.6621 63.5518 47.4297C63.5518 45.2061 62.4092 43.7383 60.6426 43.7383C58.9111 43.7383 57.7246 45.2324 57.7246 47.4297C57.7246 49.6357 58.9111 51.1211 60.6426 51.1211ZM73.0791 52H71.9277V47.8691H71.8223C71.3213 48.3262 70.5303 48.6777 69.4756 48.6777C67.2783 48.6777 66.127 47.3506 66.127 45.3994V42.8594H67.2783V45.3818C67.2783 46.7529 68.0518 47.6494 69.502 47.6494C70.6533 47.6494 71.4355 47.21 71.9277 46.6562V42.8594H73.0791V52ZM78.8799 43.7295C77.2451 43.7295 76.1113 44.9863 76.0146 46.7881H81.6572C81.6309 44.9863 80.5322 43.7295 78.8799 43.7295ZM81.5869 49.4072H82.7383C82.4658 50.9893 80.9805 52.1494 78.9678 52.1494C76.4014 52.1494 74.8105 50.3564 74.8105 47.4561C74.8105 44.6172 76.4189 42.71 78.8975 42.71C81.3232 42.71 82.8525 44.4941 82.8525 47.2188V47.7109H76.0059V47.7812C76.0059 49.8467 77.1748 51.1299 78.9941 51.1299C80.374 51.1299 81.332 50.4092 81.5869 49.4072ZM91.9844 45.5752H90.833C90.5342 44.5469 89.6377 43.7383 88.249 43.7383C86.4648 43.7383 85.3135 45.1973 85.3135 47.4297C85.3135 49.6973 86.4736 51.1211 88.2666 51.1211C89.585 51.1211 90.5078 50.4355 90.8242 49.3545H91.9844C91.6592 50.998 90.2266 52.1494 88.2578 52.1494C85.7529 52.1494 84.127 50.3301 84.127 47.4297C84.127 44.5732 85.7529 42.71 88.249 42.71C90.3232 42.71 91.6768 44.0195 91.9844 45.5752ZM96.0098 47.21L100.809 52H99.2793L94.832 47.5439H94.7793V52H93.6279V42.8594H94.7793V46.9639H94.832L99.165 42.8594H100.633L96.0098 47.21ZM104.808 51.1475C106.407 51.1475 107.664 50.0137 107.664 48.5635V47.5527L104.957 47.7373C103.516 47.834 102.716 48.458 102.716 49.4688C102.716 50.4619 103.568 51.1475 104.808 51.1475ZM104.57 52.1494C102.769 52.1494 101.538 51.0684 101.538 49.4688C101.538 47.9043 102.707 46.9551 104.816 46.8145L107.664 46.6387V45.8477C107.664 44.5293 106.829 43.7383 105.405 43.7383C104.061 43.7383 103.199 44.3975 102.997 45.5049H101.872C102.004 43.8701 103.349 42.71 105.432 42.71C107.515 42.71 108.824 43.8789 108.824 45.7422V52H107.717V50.2598H107.69C107.181 51.3936 105.933 52.1494 104.57 52.1494ZM114.027 47.5967H116.075V43.8262H114.027C112.7 43.8262 111.848 44.5645 111.848 45.7598C111.848 46.8496 112.709 47.5967 114.027 47.5967ZM116.075 52V48.5635H114.159L111.654 52H110.31L112.973 48.3701C111.558 48.0801 110.696 47.1221 110.696 45.7773C110.696 43.9756 111.997 42.8594 114.019 42.8594H117.227V52H116.075ZM124.24 52H123.089V42.8594H124.486L128.055 50.4707H128.116L131.685 42.8594H133.029V52H131.869V44.916H131.825L128.512 51.8154H127.606L124.293 44.916H124.24V52ZM138.153 51.1475C139.753 51.1475 141.01 50.0137 141.01 48.5635V47.5527L138.303 47.7373C136.861 47.834 136.062 48.458 136.062 49.4688C136.062 50.4619 136.914 51.1475 138.153 51.1475ZM137.916 52.1494C136.114 52.1494 134.884 51.0684 134.884 49.4688C134.884 47.9043 136.053 46.9551 138.162 46.8145L141.01 46.6387V45.8477C141.01 44.5293 140.175 43.7383 138.751 43.7383C137.406 43.7383 136.545 44.3975 136.343 45.5049H135.218C135.35 43.8701 136.694 42.71 138.777 42.71C140.86 42.71 142.17 43.8789 142.17 45.7422V52H141.062V50.2598H141.036C140.526 51.3936 139.278 52.1494 137.916 52.1494ZM151.697 45.5752H150.546C150.247 44.5469 149.351 43.7383 147.962 43.7383C146.178 43.7383 145.026 45.1973 145.026 47.4297C145.026 49.6973 146.187 51.1211 147.979 51.1211C149.298 51.1211 150.221 50.4355 150.537 49.3545H151.697C151.372 50.998 149.939 52.1494 147.971 52.1494C145.466 52.1494 143.84 50.3301 143.84 47.4297C143.84 44.5732 145.466 42.71 147.962 42.71C150.036 42.71 151.39 44.0195 151.697 45.5752ZM159.695 42.8594V43.8262H156.584V52H155.433V43.8262H152.321V42.8594H159.695ZM164.468 43.7295C162.833 43.7295 161.699 44.9863 161.603 46.7881H167.245C167.219 44.9863 166.12 43.7295 164.468 43.7295ZM167.175 49.4072H168.326C168.054 50.9893 166.568 52.1494 164.556 52.1494C161.989 52.1494 160.398 50.3564 160.398 47.4561C160.398 44.6172 162.007 42.71 164.485 42.71C166.911 42.71 168.44 44.4941 168.44 47.2188V47.7109H161.594V47.7812C161.594 49.8467 162.763 51.1299 164.582 51.1299C165.962 51.1299 166.92 50.4092 167.175 49.4072ZM174.452 42.71C176.764 42.71 178.346 44.5908 178.346 47.4297C178.346 50.2773 176.772 52.1494 174.479 52.1494C173.002 52.1494 171.851 51.3057 171.367 50.1191H171.332V55.0234H170.172V42.8594H171.271V44.793H171.306C171.807 43.5801 172.967 42.71 174.452 42.71ZM174.25 51.1211C176.017 51.1211 177.159 49.6621 177.159 47.4297C177.159 45.2061 176.017 43.7383 174.25 43.7383C172.519 43.7383 171.332 45.2324 171.332 47.4297C171.332 49.6357 172.519 51.1211 174.25 51.1211ZM187.469 45.5752H186.317C186.019 44.5469 185.122 43.7383 183.733 43.7383C181.949 43.7383 180.798 45.1973 180.798 47.4297C180.798 49.6973 181.958 51.1211 183.751 51.1211C185.069 51.1211 185.992 50.4355 186.309 49.3545H187.469C187.144 50.998 185.711 52.1494 183.742 52.1494C181.237 52.1494 179.611 50.3301 179.611 47.4297C179.611 44.5732 181.237 42.71 183.733 42.71C185.808 42.71 187.161 44.0195 187.469 45.5752ZM191.494 47.21L196.293 52H194.764L190.316 47.5439H190.264V52H189.112V42.8594H190.264V46.9639H190.316L194.649 42.8594H196.117L191.494 47.21ZM200.292 51.1475C201.892 51.1475 203.148 50.0137 203.148 48.5635V47.5527L200.441 47.7373C199 47.834 198.2 48.458 198.2 49.4688C198.2 50.4619 199.053 51.1475 200.292 51.1475ZM200.055 52.1494C198.253 52.1494 197.022 51.0684 197.022 49.4688C197.022 47.9043 198.191 46.9551 200.301 46.8145L203.148 46.6387V45.8477C203.148 44.5293 202.313 43.7383 200.89 43.7383C199.545 43.7383 198.684 44.3975 198.481 45.5049H197.356C197.488 43.8701 198.833 42.71 200.916 42.71C202.999 42.71 204.309 43.8789 204.309 45.7422V52H203.201V50.2598H203.175C202.665 51.3936 201.417 52.1494 200.055 52.1494ZM209.512 47.5967H211.56V43.8262H209.512C208.185 43.8262 207.332 44.5645 207.332 45.7598C207.332 46.8496 208.193 47.5967 209.512 47.5967ZM211.56 52V48.5635H209.644L207.139 52H205.794L208.457 48.3701C207.042 48.0801 206.181 47.1221 206.181 45.7773C206.181 43.9756 207.481 42.8594 209.503 42.8594H212.711V52H211.56Z" fill="black"/>
</svg>
